HIERARCHY
ROOT Hips
{
	OFFSET 0.000000 0.000000 0.000000
	CHANNELS 6 Xposition Yposition Zposition Zrotation Yrotation Xrotation 
	JOINT LHipJoint
	{
		OFFSET 0.000000 0.000000 0.000000
		CHANNELS 3 Zrotation Yrotation Xrotation
		JOINT LeftUpLeg
		{
			OFFSET 1.363060 -1.794630 0.839290
			CHANNELS 3 Zrotation Yrotation Xrotation
			JOINT LeftLeg
			{
				OFFSET 2.448110 -6.726130 0.000000
				CHANNELS 3 Zrotation Yrotation Xrotation
				JOINT LeftFoot
				{
					OFFSET 2.562200 -7.039590 0.000000
					CHANNELS 3 Zrotation Yrotation Xrotation
					JOINT LeftToeBase
					{
						OFFSET 0.157640 -0.433110 2.322550
						CHANNELS 3 Zrotation Yrotation Xrotation
						End Site
						{
							OFFSET 0.000000 0.000000 0.000000
						}
					}
				}
			}
		}
	}
	JOINT RHipJoint
	{
		OFFSET 0.000000 0.000000 0.000000
		CHANNELS 3 Zrotation Yrotation Xrotation
		JOINT RightUpLeg
		{
			OFFSET -1.305520 -1.794630 0.839290
			CHANNELS 3 Zrotation Yrotation Xrotation
			JOINT RightLeg
			{
				OFFSET -2.542530 -6.985550 0.000000
				CHANNELS 3 Zrotation Yrotation Xrotation
				JOINT RightFoot
				{
					OFFSET -2.568260 -7.056230 0.000000
					CHANNELS 3 Zrotation Yrotation Xrotation
					JOINT RightToeBase
					{
						OFFSET -0.164730 -0.452590 2.363150
						CHANNELS 3 Zrotation Yrotation Xrotation
						End Site
						{
							OFFSET 0.000000 0.000000 0.000000
						}
					}
				}
			}
		}
	}
	JOINT LowerBack
	{
		OFFSET 0.000000 0.000000 0.000000
		CHANNELS 3 Zrotation Yrotation Xrotation
		JOINT Spine
		{
			OFFSET 0.028270 2.035590 -0.193380
			CHANNELS 3 Zrotation Yrotation Xrotation
			JOINT Spine1
			{
				OFFSET 0.056720 2.048850 -0.042750
				CHANNELS 3 Zrotation Yrotation Xrotation
				JOINT Neck
				{
					OFFSET 0.000000 0.000000 0.000000
					CHANNELS 3 Zrotation Yrotation Xrotation
					JOINT Neck1
					{
						OFFSET -0.054170 1.746240 0.172020
						CHANNELS 3 Zrotation Yrotation Xrotation
						JOINT Head
						{
							OFFSET 0.104070 1.761360 -0.123970
							CHANNELS 3 Zrotation Yrotation Xrotation
							End Site
							{
								OFFSET 0.000000 0.000000 0.000000
							}
						}
					}
				}
				JOINT LeftShoulder
				{
					OFFSET 0.000000 0.000000 0.000000
					CHANNELS 3 Zrotation Yrotation Xrotation
					JOINT LeftArm
					{
						OFFSET 3.362410 1.200890 -0.311210
						CHANNELS 3 Zrotation Yrotation Xrotation
						JOINT LeftForeArm
						{
							OFFSET 4.983000 -0.000000 -0.000000
							CHANNELS 3 Zrotation Yrotation Xrotation
							JOINT LeftHand
							{
								OFFSET 3.483560 -0.000000 -0.000000
								CHANNELS 3 Zrotation Yrotation Xrotation
								JOINT LeftFingerBase
								{
									OFFSET 0.000000 0.000000 0.000000
									CHANNELS 3 Zrotation Yrotation Xrotation
									JOINT LeftHandIndex1
									{
										OFFSET 0.715260 -0.000000 -0.000000
										CHANNELS 3 Zrotation Yrotation Xrotation
										End Site
										{
											OFFSET 0.000000 0.000000 0.000000
										}
									}
								}
								JOINT LThumb
								{
									OFFSET 0.000000 0.000000 0.000000
									CHANNELS 3 Zrotation Yrotation Xrotation
									End Site
									{
										OFFSET 0.000000 0.000000 0.000000
									}
								}
							}
						}
					}
				}
				JOINT RightShoulder
				{
					OFFSET 0.000000 0.000000 0.000000
					CHANNELS 3 Zrotation Yrotation Xrotation
					JOINT RightArm
					{
						OFFSET -3.136600 1.374050 -0.404650
						CHANNELS 3 Zrotation Yrotation Xrotation
						JOINT RightForeArm
						{
							OFFSET -5.241900 -0.000000 -0.000000
							CHANNELS 3 Zrotation Yrotation Xrotation
							JOINT RightHand
							{
								OFFSET -3.444170 -0.000000 -0.000000
								CHANNELS 3 Zrotation Yrotation Xrotation
								JOINT RightFingerBase
								{
									OFFSET 0.000000 0.000000 0.000000
									CHANNELS 3 Zrotation Yrotation Xrotation
									JOINT RightHandIndex1
									{
										OFFSET -0.622530 -0.000000 -0.000000
										CHANNELS 3 Zrotation Yrotation Xrotation
										End Site
										{
											OFFSET 0.000000 0.000000 0.000000
										}
									}
								}
								JOINT RThumb
								{
									OFFSET 0.000000 0.000000 0.000000
									CHANNELS 3 Zrotation Yrotation Xrotation
									End Site
									{
										OFFSET 0.000000 0.000000 0.000000
									}
								}
							}
						}
					}
				}
			}
		}
	}
}
MOTION
Frames: 6
Frame Time: 0.008333
2.451300 16.892268 0.532364 -173.650759 -43.534887 -153.518148 -12.273179 0.799512 -5.317288 -3.119985 41.844626 -24.361652 -3.877149 0.030836 -1.791703 2.344377 17.533128 17.586908 7.018000 -0.000000 -65.787300 8.717247 0.968299 6.788625 -4.450386 15.358609 -49.762117 2.481286 0.522349 8.872602 1.508351 5.764884 15.068785 1.336399 0.000000 -78.547700 4.427101 -7.030241 0.119083 1.033168 -7.263173 -2.732879 -4.800655 -7.370999 0.268086 19.225529 -14.906008 -6.160088 -0.735983 -0.071536 0.340481 0.000000 0.000000 0.000000 31.362364 -9.672774 4.081531 13.047517 -11.175082 -48.463465 -1.157046 -1.198885 -0.071474 11.614647 -5.103688 -0.609987 -0.571454 0.598406 -0.000000 0.000000 0.000000 0.000000 0.000000 0.000000 0.000000 13.265656 -15.841753 -3.108724 48.950695 54.107384 3.978048 -178.119814 58.334859 179.713160 -25.433276 13.502888 -3.350605 0.511963 -0.973070 0.000000 0.000000 0.000000 0.000000 0.000000 0.000000 0.000000 
2.448393 16.874367 0.524596 -173.491486 -43.289924 -153.563840 -12.313783 0.802842 -5.481157 -3.503468 42.967946 -24.611533 -4.006975 0.022516 -2.360174 2.274434 16.918640 17.514465 6.704800 0.000000 -65.702300 8.610096 0.932457 6.952984 -4.572178 15.850250 -50.078305 2.460756 0.531881 9.112985 1.479383 5.495305 14.809843 1.197101 0.000000 -78.484900 4.702462 -7.050409 0.120425 1.115086 -7.294429 -2.610546 -4.754431 -7.377042 0.691269 18.792081 -15.006286 -6.489608 -0.695585 -0.061820 0.238882 0.000000 0.000000 0.000000 31.515468 -7.283858 4.178703 13.814883 -16.564371 -53.419009 -0.665847 0.935551 -0.066882 12.368977 -9.035401 -1.109826 -0.565908 0.725169 0.000000 0.000000 0.000000 0.000000 0.000000 0.000000 0.000000 12.727967 -15.907508 -3.385916 49.474515 54.352818 4.319748 -178.046814 58.211772 179.715785 -25.146034 13.711615 -3.359415 0.498433 -0.974040 -0.000002 0.000000 0.000000 0.000000 0.000000 0.000000 0.000000 
2.447457 16.857431 0.511215 -173.386187 -43.033785 -153.538436 -12.323411 0.809646 -5.612349 -3.879510 43.870429 -24.829836 -4.111357 0.009288 -2.847457 2.219994 16.463939 17.483881 6.481700 0.000000 -65.579200 8.529182 0.891872 7.137666 -4.767872 16.342625 -50.449083 2.423072 0.534082 9.343179 1.448967 5.264963 14.551955 1.081100 0.000000 -78.435700 4.823004 -7.018101 0.061488 1.146946 -7.267838 -2.503756 -4.785759 -7.322334 1.072457 18.506095 -15.112883 -6.789765 -0.672718 -0.054077 0.147930 0.000000 0.000000 0.000000 32.085275 -5.286729 4.243104 14.686971 -21.650277 -58.013762 -0.272601 3.311902 -0.056093 12.450901 -14.010081 -1.704594 -0.535150 0.877698 -0.000000 0.000000 0.000000 0.000000 0.000000 0.000000 0.000000 12.446825 -15.971388 -3.591495 49.602825 54.512655 4.304237 -177.998100 58.007201 179.718058 -24.919076 13.862198 -3.362495 0.489629 -0.974973 -0.000000 0.000000 0.000000 0.000000 0.000000 0.000000 0.000000 
2.449343 16.842099 0.493373 -173.345106 -42.776871 -153.476865 -12.319299 0.832235 -5.687966 -4.203239 44.522326 -24.980114 -4.184780 -0.010531 -3.245504 2.182512 16.191991 17.491857 6.356100 0.000000 -65.432200 8.469884 0.839853 7.344410 -5.015068 16.817048 -50.840175 2.374005 0.530686 9.571790 1.419734 5.072515 14.300365 0.985800 0.000000 -78.398300 4.838901 -6.957623 -0.117017 1.151255 -7.212667 -2.441254 -4.799628 -7.247338 1.354405 18.114491 -15.161395 -6.908403 -0.737045 -0.056162 0.111113 0.000000 0.000000 0.000000 33.109191 -4.302725 4.138681 11.689586 -23.980498 -57.449039 -0.025842 -2.037679 -0.072878 11.898822 -14.171048 -1.648435 -0.474595 0.935168 -0.000000 0.000000 0.000000 0.000000 0.000000 0.000000 0.000000 12.182393 -15.902272 -3.659396 49.502583 54.557591 4.081534 -178.010816 57.810596 179.719143 -24.741995 13.956355 -3.360974 0.488614 -0.980651 0.000000 0.000000 0.000000 0.000000 0.000000 0.000000 0.000000 
2.454348 16.828603 0.472865 -173.356988 -42.531970 -153.382643 -12.310539 0.858386 -5.717299 -4.436887 44.913323 -25.047888 -4.227110 -0.034452 -3.542454 2.163081 16.104093 17.519395 6.322300 -0.000000 -65.277600 8.426399 0.784110 7.548613 -5.289033 17.258174 -51.236071 2.316433 0.522230 9.805271 1.391384 4.910907 14.057976 0.907500 -0.000000 -78.370700 4.802305 -6.871384 -0.343598 1.131098 -7.132043 -2.441907 -4.852496 -7.156619 1.415656 17.700156 -15.132634 -6.812190 -0.836086 -0.065020 0.138245 0.000000 0.000000 0.000000 33.812886 -4.324136 3.926102 8.534559 -24.865034 -54.223832 0.069832 -8.397649 -0.088230 11.490115 -13.590648 -1.528317 -0.424415 0.960592 -0.000000 0.000000 0.000000 0.000000 0.000000 0.000000 0.000000 11.908207 -15.743281 -3.611251 49.379601 54.409634 3.809507 -178.067977 57.630322 179.719648 -24.601157 14.023357 -3.358922 0.491833 -0.988532 -0.000000 0.000000 0.000000 0.000000 0.000000 0.000000 0.000000 
2.462224 16.817252 0.451269 -173.406322 -42.315425 -153.270467 -12.302198 0.881098 -5.705059 -4.554606 45.049003 -25.027795 -4.238472 -0.059804 -3.733217 2.161874 16.190586 17.553006 6.371900 -0.000000 -65.125500 8.395150 0.730543 7.735160 -5.563425 17.652829 -51.613690 2.254143 0.509506 10.042630 1.363223 4.769343 13.830153 0.841100 0.000000 -78.348200 4.744517 -6.766892 -0.588039 1.094160 -7.034546 -2.484468 -4.941499 -7.054431 1.327977 17.291953 -15.054450 -6.571338 -0.948051 -0.077543 0.207986 0.000000 0.000000 0.000000 34.094112 -4.941107 3.680478 5.892767 -24.863637 -51.213934 0.148411 -14.788494 -0.101040 11.207419 -13.070412 -1.433794 -0.376953 0.975409 -0.000000 0.000000 0.000000 0.000000 0.000000 0.000000 0.000000 11.628611 -15.533682 -3.489420 49.278927 54.155975 3.520113 -178.149346 57.480323 179.719629 -24.503824 14.066384 -3.357856 0.497526 -0.997143 -0.000000 0.000000 0.000000 0.000000 0.000000 0.000000 0.000000 
